<svg width="32" height="32" viewBox="0 0 32 32" fill="none" xmlns="http://www.w3.org/2000/svg">
  <rect width="32" height="32" rx="8" fill="#F9F9F9"/>
  <g transform="translate(4, 4) scale(1)">
    <path d="M19 17h2c.6 0 1-.4 1-1v-3c0-.9-.7-1.7-1.5-1.9C18.7 10.6 16 10 16 10s-1.3-1.4-2.2-2.3c-.5-.4-1.1-.7-1.8-.7H5c-.6 0-1.1.4-1.4.9l-1.4 2.9A3.7 3.7 0 0 0 2 12v4c0 .6.4 1 1 1h2" stroke="#0F0F0F" stroke-width="2.5" stroke-linecap="round" stroke-linejoin="round"/>
    <circle cx="7" cy="17" r="2" stroke="#0F0F0F" stroke-width="2.5" stroke-linecap="round" stroke-linejoin="round"/>
    <path d="M9 17h6" stroke="#0F0F0F" stroke-width="2.5" stroke-linecap="round" stroke-linejoin="round"/>
    <circle cx="17" cy="17" r="2" stroke="#0F0F0F" stroke-width="2.5" stroke-linecap="round" stroke-linejoin="round"/>
  </g>
</svg>
